<svg xmlns="http://www.w3.org/2000/svg" viewBox="0 0 202.59 151.94">
    <defs>
        <style>.cls-1{fill:#3f0;}</style>
    </defs>
    <g id="Layer_2" data-name="Layer 2">
        <g id="Layer_1-2" data-name="Layer 1">
            <polygon class="cls-1"
                     points="194.15 25.32 194.15 16.88 185.71 16.88 185.71 8.44 177.26 8.44 177.26 0 168.82 0 160.38 0 151.94 0 143.5 0 135.06 0 126.62 0 118.18 0 109.73 0 101.29 0 92.85 0 84.41 0 75.97 0 67.53 0 59.09 0 50.65 0 42.21 0 33.77 0 25.32 0 25.32 8.44 16.88 8.44 16.88 16.88 8.44 16.88 8.44 25.32 0 25.32 0 33.77 0 42.21 0 50.65 0 59.09 0 67.53 0 75.97 0 84.41 0 92.85 0 101.29 0 109.73 0 118.18 0 126.62 0 135.06 0 143.5 0 151.94 8.44 151.94 16.88 151.94 25.32 151.94 33.77 151.94 42.21 151.94 50.65 151.94 50.65 143.5 50.65 135.06 50.65 126.62 50.65 118.18 50.65 109.73 50.65 101.29 59.09 101.29 59.09 92.85 67.53 92.85 67.53 84.41 75.97 84.41 75.97 75.97 84.41 75.97 84.41 67.53 92.85 67.53 101.29 67.53 109.73 67.53 118.18 67.53 118.18 75.97 126.62 75.97 126.62 84.41 135.06 84.41 135.06 92.85 143.5 92.85 143.5 101.29 151.94 101.29 151.94 109.73 151.94 118.18 151.94 126.62 151.94 135.06 151.94 143.5 151.94 151.94 160.38 151.94 168.82 151.94 177.26 151.94 185.71 151.94 194.15 151.94 202.59 151.94 202.59 143.5 202.59 135.06 202.59 126.62 202.59 118.18 202.59 109.73 202.59 101.29 202.59 92.85 202.59 84.41 202.59 75.97 202.59 67.53 202.59 59.09 202.59 50.65 202.59 42.21 202.59 33.77 202.59 25.32 194.15 25.32"/>
        </g>
    </g>
</svg>
