<svg xmlns="http://www.w3.org/2000/svg" viewBox="0 0 126.62 67.53">
    <defs>
        <style>.cls-1{fill:#3f0;}</style>
    </defs>
    <g id="Layer_2" data-name="Layer 2">
        <g id="Layer_1-2" data-name="Layer 1">
            <polygon class="cls-1"
                     points="118.18 33.77 118.18 25.32 109.73 25.32 101.29 25.32 92.85 25.32 84.41 25.32 75.97 25.32 75.97 16.88 75.97 8.44 67.53 8.44 67.53 0 59.09 0 59.09 8.44 50.65 8.44 50.65 16.88 50.65 25.32 42.21 25.32 33.77 25.32 25.32 25.32 16.88 25.32 8.44 25.32 8.44 33.77 0 33.77 0 42.21 0 50.65 0 59.09 0 67.53 8.44 67.53 16.88 67.53 25.32 67.53 33.77 67.53 42.21 67.53 50.65 67.53 59.09 67.53 67.53 67.53 75.97 67.53 84.41 67.53 92.85 67.53 101.29 67.53 109.73 67.53 118.18 67.53 126.62 67.53 126.62 59.09 126.62 50.65 126.62 42.21 126.62 33.77 118.18 33.77"/>
        </g>
    </g>
</svg>
